<svg width="44" height="46" viewBox="0 0 44 46" fill="none" xmlns="http://www.w3.org/2000/svg">
<path fill-rule="evenodd" clip-rule="evenodd" d="M26.4613 0.20401C10.707 0.0946772 0.368164 16.3136 0.368164 29.7069C0.368164 35.6622 2.29175 45.7858 12.388 45.632C21.3807 45.4919 27.9543 37.5003 30.6637 33.5438V39.0857H36.0382V17.1883H37.4253V13.4675H12.9927V17.1883H18.743C18.743 18.0185 18.743 24.9953 18.743 27.4622C18.743 30.0862 20.2053 33.4038 24.606 33.5199C26.7209 33.5199 29.1228 31.6134 30.3802 30.4654C28.624 32.4403 22.2929 38.9934 15.6167 38.9934C11.3357 38.9934 3.89075 37.1689 3.89075 25.3165C3.89075 15.7977 12.347 4.50901 24.9989 4.50901C33.4278 4.35184 40.4388 12.4425 40.4388 20.8236C40.4388 20.9808 43.2747 18.5754 43.2747 18.5754C43.2747 18.5754 46.1515 0.340677 26.4613 0.20401ZM24.0183 25.7983C24.0183 22.9693 24.0183 21.6333 24.0183 17.1848H30.6637V28.6683C30.0863 29.2593 29.0989 29.9973 27.7323 29.9973C24.6163 30.0008 24.0183 28.6478 24.0183 25.7983Z" fill="black"/>
</svg>
